<?xml version="1.0" standalone="no"?><!DOCTYPE svg PUBLIC "-//W3C//DTD SVG 1.1//EN"
        "http://www.w3.org/Graphics/SVG/1.1/DTD/svg11.dtd">
<svg t="1616031627064" class="icon" viewBox="0 0 1024 1024" version="1.1" xmlns="http://www.w3.org/2000/svg" p-id="1305"
     xmlns:xlink="http://www.w3.org/1999/xlink" width="64" height="64">
    <defs>
        <style type="text/css"></style>
    </defs>
    <path d="M842.512 240.352v-0.192a27.68 27.68 0 0 0-0.176-1.744l-0.032-0.24a27.584 27.584 0 0 0-5.184-12.816l-0.368-0.48a27.936 27.936 0 0 0-1.328-1.6l-0.56-0.592-0.608-0.64-152.48-149.776a27.68 27.68 0 0 0-16.48-8.08h-0.064a27.52 27.52 0 0 0-1.888-0.16h-0.432L662.032 64H203.776C188.432 64 176 76.432 176 91.792v833.76c0 15.36 12.432 27.792 27.776 27.792h611.008c15.344 0 27.776-12.432 27.776-27.792v-683.68a28.64 28.64 0 0 0-0.048-1.52z m-152.704-82.304l57.04 56.032h-57.04V158.048z m97.2 739.712H231.52V119.584h402.72v122.304c0 15.36 12.448 27.792 27.776 27.792h124.96V897.76z m-78.304-384.368H323.84c-15.36 0-27.776 12.432-27.776 27.792 0 15.36 12.432 27.792 27.776 27.792h384.88a27.792 27.792 0 0 0 0-55.584z m-412.656-88.944c0 15.36 12.432 27.808 27.776 27.808h384.88a27.792 27.792 0 0 0 0-55.6H323.84c-15.36 0-27.776 12.432-27.776 27.792z m412.656 205.648H323.84c-15.36 0-27.776 12.432-27.776 27.792 0 15.36 12.432 27.792 27.776 27.792h384.88a27.792 27.792 0 0 0 0-55.584z m0 116.736H323.84a27.776 27.776 0 1 0 0 55.584h384.88a27.792 27.792 0 0 0 0-55.584z"
          p-id="1306"></path>
</svg>